<svg version="1.1" id="Layer_1" xmlns="http://www.w3.org/2000/svg" xmlns:xlink="http://www.w3.org/1999/xlink" x="0px" y="0px"
	 width="100%" viewBox="0 0 679 424" enable-background="new 0 0 679 424" xml:space="preserve">
<path fill="#EA3C12" opacity="1.000000" stroke="none" 
	d="
M496.000000,425.000000 
	C330.704010,425.000000 165.908035,425.000000 1.056031,425.000000 
	C1.056031,283.736053 1.056031,142.472107 1.056031,1.104074 
	C227.212631,1.104074 453.425323,1.104074 679.818970,1.104074 
	C679.818970,142.333145 679.818970,283.666565 679.818970,425.000000 
	C618.805481,425.000000 557.652710,425.000000 496.000000,425.000000 
M249.269867,269.194061 
	C272.617523,307.331299 315.075256,327.257812 356.408386,319.476929 
	C413.044952,308.815216 448.865479,259.976379 442.079315,202.670593 
	C435.369476,146.009705 378.530365,104.104744 322.335327,114.388695 
	C250.099976,127.608101 213.562958,204.338837 249.269867,269.194061 
M321.605804,67.683128 
	C320.086853,59.687618 318.464661,51.709682 317.099457,43.688015 
	C316.548462,40.450691 315.064636,40.547329 312.538177,41.694328 
	C313.575745,47.843044 314.580383,53.796680 315.585022,59.750313 
	C315.208710,59.935814 314.832367,60.121319 314.456055,60.306820 
	C313.528046,59.104038 312.544403,57.939690 311.682465,56.691299 
	C309.049652,52.877865 306.579285,48.944397 303.783234,45.256645 
	C303.023956,44.255226 301.336731,43.957401 298.983948,42.799515 
	C301.238068,54.777306 303.248566,65.035744 305.061066,75.329041 
	C305.670807,78.791458 307.319702,78.693085 309.857269,77.436005 
	C308.635742,70.809242 307.446167,64.356003 306.256622,57.902760 
	C307.894592,58.489811 308.739838,59.412899 309.438721,60.435947 
	C312.436066,64.823578 315.301514,69.305168 318.423187,73.601280 
	C319.196777,74.665886 320.750092,75.163918 323.072296,76.637947 
	C322.444122,72.729164 322.104584,70.616478 321.605804,67.683128 
M305.460999,366.848389 
	C304.025848,374.486481 302.590668,382.124542 301.159363,389.742218 
	C305.216400,390.682007 305.295898,390.697968 305.902069,387.678894 
	C307.062836,381.898132 308.123505,376.097260 309.482147,368.956970 
	C310.275635,371.321259 310.725861,372.346893 310.962189,373.419617 
	C312.212982,379.097748 313.329773,384.807220 314.701965,390.455078 
	C314.940216,391.435730 316.178986,392.173340 316.955597,393.023193 
	C317.612885,392.225952 318.683380,391.512146 318.863892,390.618591 
	C320.805389,381.006042 322.704742,371.381622 324.320831,361.711151 
	C324.520996,360.513245 323.010254,359.029419 322.292297,357.678101 
	C321.802826,357.929932 321.313324,358.181763 320.823853,358.433563 
	C319.478546,365.084717 318.133270,371.735840 316.607208,379.280731 
	C315.932922,377.337860 315.446808,376.291077 315.208435,375.190613 
	C314.011749,369.665985 312.992554,364.099396 311.632111,358.616760 
	C311.352905,357.491486 309.882385,356.661865 308.960968,355.695953 
	C308.294006,356.680542 307.309265,357.581879 307.024963,358.666748 
	C306.394562,361.072357 306.115662,363.570099 305.460999,366.848389 
M202.239807,274.886810 
	C199.091797,275.666351 195.943802,276.445892 192.795792,277.225433 
	C197.353851,272.195160 202.188156,268.147430 206.782166,263.843170 
	C207.763031,262.924164 207.871109,261.073578 208.809113,258.460114 
	C197.211945,262.299927 187.338104,265.697083 177.370575,268.792633 
	C174.314148,269.741882 174.139694,270.979462 175.905869,273.576202 
	C181.928589,271.710175 187.919250,269.854065 193.909927,267.997955 
	C190.151001,275.227142 182.091522,278.118164 178.690994,284.980347 
	C179.074371,285.430603 179.457733,285.880859 179.841110,286.331146 
	C190.921616,282.776764 202.002136,279.222412 213.082657,275.668030 
	C213.148834,275.050232 213.215012,274.432404 213.281189,273.814606 
	C211.895630,273.417542 210.447098,272.553619 209.138931,272.730133 
	C207.048782,273.012146 205.051865,273.985229 202.239807,274.886810 
M176.506180,174.870773 
	C183.575912,177.164017 190.645630,179.457275 197.723312,181.753098 
	C199.806442,179.029251 199.675812,177.705185 196.255051,176.771942 
	C190.631195,175.237625 185.153763,173.166580 179.614609,171.321823 
	C186.669327,169.679962 193.510254,169.102554 200.325607,168.306305 
	C201.314026,168.190811 202.179947,167.026947 203.102570,166.348221 
	C202.343491,165.626495 201.705490,164.579620 200.802826,164.243546 
	C198.015594,163.205780 195.115067,162.477203 192.280930,161.559402 
	C185.969910,159.515594 179.704147,157.321609 173.340958,155.458649 
	C172.164551,155.114212 170.616867,156.037979 169.240555,156.376419 
	C170.215073,157.374115 171.013443,158.794067 172.197998,159.288177 
	C175.402542,160.624863 178.790405,161.514435 182.067642,162.687302 
	C184.053848,163.398117 185.969574,164.305847 187.916962,165.125107 
	C166.336472,167.110001 166.336472,167.110001 164.946014,171.217056 
	C168.547073,172.356750 172.144882,173.495407 176.506180,174.870773 
M415.749207,94.227859 
	C418.027679,90.173119 420.319977,86.126068 422.579285,82.060684 
	C423.875031,79.729088 425.102936,76.621078 428.417999,78.360847 
	C431.982697,80.231606 428.990601,82.701767 428.006561,84.614563 
	C425.522461,89.443352 422.737457,94.117355 419.952148,99.068253 
	C421.358795,99.830162 422.449493,100.420937 423.736115,101.117828 
	C427.139648,95.091423 430.565796,89.408493 433.599854,83.523407 
	C435.769653,79.314720 433.936859,76.389847 429.218292,75.868324 
	C428.113007,75.746155 426.982727,75.850258 425.863983,75.850258 
	C426.073547,75.402336 426.283112,74.954422 426.492676,74.506500 
	C422.462830,72.065453 418.432983,69.624397 414.118103,67.010696 
	C409.985565,74.356552 406.023254,81.399818 401.934326,88.668159 
	C403.259979,89.488365 404.325256,90.147476 405.657349,90.971672 
	C408.624176,85.662369 411.247589,80.463684 414.416809,75.622246 
	C415.296417,74.278481 417.795013,73.994469 419.550812,73.224236 
	C419.594513,74.934212 420.246979,76.946449 419.574463,78.300758 
	C416.949341,83.587410 413.904816,88.665787 410.460175,94.814072 
	C412.702515,94.814072 414.018463,94.814072 415.749207,94.227859 
M263.279602,347.461792 
	C260.560150,345.740723 257.919434,343.865021 255.063995,342.410919 
	C254.379333,342.062256 252.495148,342.797882 251.987305,343.574280 
	C247.929672,349.777649 244.070419,356.110809 240.058853,362.551178 
	C241.433807,363.467896 242.479416,364.165039 243.723709,364.994629 
	C246.996063,359.691528 249.950684,354.485382 253.394852,349.626221 
	C254.218460,348.464264 256.673279,348.458557 258.377869,347.921051 
	C258.424927,349.481079 259.069672,351.375580 258.416077,352.543457 
	C255.515686,357.725952 252.242905,362.700012 248.960556,367.981659 
	C250.191116,368.853027 251.214157,369.577454 252.484238,370.476776 
	C255.714661,365.311066 258.593384,360.261810 261.979828,355.579773 
	C262.925446,354.272400 265.369904,354.049133 267.126770,353.328522 
	C267.142029,355.017426 267.776062,357.049469 267.063416,358.334778 
	C264.252380,363.404663 261.018555,368.240143 257.719757,373.517365 
	C258.970184,374.342285 260.100739,375.088104 261.358612,375.917938 
	C264.935333,370.157135 268.329803,364.845978 271.561798,359.437714 
	C274.438171,354.624542 272.860077,351.365387 267.206238,351.023926 
	C264.872711,350.882965 263.921814,350.263916 263.279602,347.461792 
M408.973511,367.635468 
	C410.150391,369.832275 411.349884,372.017365 412.498688,374.228760 
	C414.102295,377.315674 415.779968,376.847748 417.702209,374.446655 
	C414.819214,369.255676 412.136047,364.101318 409.127228,359.144623 
	C407.645447,356.703583 408.084595,354.791260 410.342102,353.874359 
	C411.201324,353.525360 413.427704,354.992126 414.169312,356.172668 
	C417.337860,361.216522 420.184540,366.462616 423.266602,371.840790 
	C424.668762,371.025360 425.755432,370.393402 426.938507,369.705353 
	C423.919739,364.220459 420.866272,359.086548 418.307465,353.716919 
	C417.707062,352.457001 418.779175,350.400085 419.081848,348.709839 
	C420.443726,349.381104 422.381866,349.690552 423.069336,350.785309 
	C426.320831,355.963135 429.230499,361.355621 432.365753,366.853577 
	C433.726074,365.975830 434.790375,365.289062 436.029663,364.489410 
	C432.607513,358.516022 429.502380,352.636017 425.946625,347.042419 
	C423.345428,342.950378 419.953644,343.046326 417.156403,346.858337 
	C416.487518,347.769897 416.033844,348.839264 415.481171,349.836029 
	C415.209839,349.390961 414.938477,348.945892 414.667145,348.500824 
	C410.424652,350.711945 406.182129,352.923035 401.771912,355.221558 
	C404.276764,359.532043 406.444550,363.262543 408.973511,367.635468 
M244.589127,79.829117 
	C243.080505,80.123001 241.571899,80.416885 239.645248,80.792206 
	C244.474182,88.507446 248.776932,95.381996 253.205414,102.457405 
	C254.546600,101.681015 255.623810,101.057449 256.992828,100.264946 
	C253.614334,94.837654 250.189392,89.745491 247.297226,84.366844 
	C246.669006,83.198532 247.951019,81.003090 248.353226,79.280731 
	C249.669769,79.947525 251.481689,80.273689 252.215622,81.341080 
	C255.126694,85.574776 257.814972,89.975067 260.361725,94.441414 
	C262.232391,97.722153 263.699463,96.774040 265.507538,94.281845 
	C262.604919,89.591805 259.852692,84.846977 256.784973,80.315781 
	C255.290634,78.108582 254.295898,75.897079 256.834045,74.408188 
	C257.679626,73.912163 260.513062,75.474701 261.496002,76.796501 
	C264.261414,80.515106 266.677216,84.518776 268.960693,88.562607 
	C270.731628,91.698753 272.247681,91.767319 274.277222,88.732178 
	C270.999420,83.463074 267.817596,78.214890 264.500366,73.053726 
	C261.266968,68.023026 257.980072,68.100990 254.602768,73.044571 
	C254.041367,73.866318 252.848312,74.927315 252.085236,74.827026 
	C248.322739,74.332573 246.665039,76.601051 244.589127,79.829117 
M470.553894,277.871704 
	C476.832458,280.029663 483.057220,282.364655 489.404846,284.295441 
	C495.670776,286.201385 499.464355,284.342194 501.414246,278.943176 
	C503.411224,273.413818 501.932770,269.796814 495.663452,267.171600 
	C487.866638,263.906799 479.840057,261.190125 471.901215,258.267883 
	C471.672638,258.183746 471.314362,258.452148 470.717621,258.660645 
	C470.404083,259.704559 470.039825,260.917450 469.618103,262.321564 
	C471.232574,262.940582 472.597168,263.472382 473.967926,263.987915 
	C480.801117,266.557770 487.672852,269.030823 494.450226,271.740143 
	C496.848145,272.698700 498.837341,274.282959 497.602356,277.495361 
	C496.412964,280.589233 494.034180,280.570038 491.428741,279.980103 
	C490.298218,279.724091 489.186707,279.359589 488.092651,278.970886 
	C481.995087,276.804626 475.850403,274.755676 469.833649,272.382965 
	C466.145721,270.928650 465.116547,272.370972 464.996674,275.838318 
	C466.723602,276.456696 468.275970,277.012543 470.553894,277.871704 
M501.342010,154.929321 
	C495.279358,157.160553 489.152527,159.233887 483.171570,161.666046 
	C476.791443,164.260544 474.911377,168.474625 477.117950,174.272339 
	C479.073517,179.410538 483.091553,181.155319 489.382294,179.141586 
	C496.472778,176.871841 503.443939,174.231934 510.500275,171.851685 
	C513.458374,170.853851 514.027832,169.302917 511.926697,166.489700 
	C510.623444,166.886581 509.224884,167.267059 507.856964,167.736755 
	C500.964813,170.103287 494.120605,172.620102 487.171326,174.803360 
	C484.848450,175.533157 482.113190,175.892776 480.943909,172.582153 
	C479.767761,169.252045 481.528870,167.586655 484.335449,166.532715 
	C492.091675,163.620041 499.859985,160.739380 507.610748,157.812332 
	C508.021973,157.657043 508.315826,157.191086 508.738068,156.801758 
	C508.305481,155.550125 507.893097,154.356934 507.386047,152.889862 
	C505.467072,153.531799 503.768555,154.099991 501.342010,154.929321 
M457.859100,127.370018 
	C455.658966,129.123566 452.187103,130.681213 456.966553,133.658691 
	C459.236298,131.933350 461.463104,130.240631 463.793121,128.469452 
	C464.777863,129.289566 465.640900,130.008362 467.124817,131.244217 
	C467.754883,129.821609 468.369751,128.612167 468.829865,127.346443 
	C469.337006,125.951279 469.259705,124.010658 470.204468,123.164352 
	C474.644287,119.187096 479.347870,115.504250 483.841095,111.811775 
	C482.218140,108.084244 479.869354,107.028259 476.177704,108.552895 
	C473.592133,109.620712 470.716064,109.960388 468.041595,110.843040 
	C463.555084,112.323723 459.125885,113.977951 454.082184,115.768761 
	C457.054565,119.494736 459.010681,121.946777 461.044800,124.496620 
	C460.082947,125.350319 459.221100,126.115257 457.859100,127.370018 
M447.621826,312.152588 
	C451.575470,318.399506 453.080200,326.246185 459.488831,331.231964 
	C461.908569,328.466583 463.960632,326.121368 466.150055,323.619171 
	C468.709015,325.548065 471.033173,327.299927 473.519348,329.173950 
	C474.492432,327.892456 475.261353,326.879822 476.090088,325.788422 
	C473.733978,323.803070 471.597961,322.003174 469.900726,320.572998 
	C469.900726,318.540039 469.900726,317.008453 469.900726,315.476868 
	C468.350800,315.708496 466.800873,315.940155 464.655334,316.260773 
	C459.796600,312.357452 454.402222,308.023804 449.054779,303.727844 
	C445.908051,306.088165 445.027283,308.509491 447.621826,312.152588 
M373.222076,381.933807 
	C372.441650,376.715027 371.661194,371.496216 370.822205,365.885864 
	C369.042084,366.315308 367.696442,366.639954 366.228088,366.994171 
	C367.159363,373.117554 368.216949,378.832001 368.757874,384.595001 
	C368.876862,385.862762 367.161194,387.302765 366.290344,388.663452 
	C365.485931,387.597351 364.191132,386.627380 363.960083,385.448883 
	C362.815857,379.612549 361.952576,373.721130 360.947235,367.586365 
	C359.313293,367.845215 358.060944,368.043610 356.424011,368.302917 
	C357.420990,375.058044 358.136566,381.659698 359.515350,388.119781 
	C359.900757,389.925629 362.295441,392.681061 363.676544,392.627625 
	C367.271545,392.488434 370.815582,391.032684 374.550995,390.057495 
	C374.152924,387.674805 373.743988,385.227173 373.222076,381.933807 
M211.001266,314.533569 
	C208.503067,316.460999 205.713776,318.123047 203.620422,320.419495 
	C202.443665,321.710388 201.391800,324.657043 202.069016,325.798340 
	C203.883850,328.856842 206.661133,331.344208 209.299179,334.333923 
	C215.622025,329.488068 222.125992,324.503387 228.836075,319.360779 
	C227.650009,317.897217 226.849747,316.909729 225.874695,315.706573 
	C221.072876,319.366028 216.415314,322.780273 211.919174,326.395294 
	C209.421295,328.403625 207.844116,327.654602 205.912582,324.688080 
	C211.508179,320.268311 217.035141,315.902771 222.743423,311.394012 
	C221.706284,310.183685 220.772797,309.094360 219.761063,307.913696 
	C216.862854,310.101746 214.215073,312.100739 211.001266,314.533569 
M371.471527,52.617054 
	C370.662750,54.357483 369.510498,56.023899 369.116241,57.853649 
	C368.278259,61.742470 367.744019,65.705147 367.258759,69.658836 
	C366.891907,72.647835 365.531616,73.781822 361.796814,72.551811 
	C362.743317,65.704971 363.704254,58.753849 364.722687,51.386593 
	C362.925995,51.296432 361.557098,51.227741 360.163574,51.157814 
	C359.120880,57.678856 357.837250,63.726334 357.348969,69.837349 
	C357.178619,71.969170 358.455109,75.615952 359.973846,76.192619 
	C363.153381,77.399879 366.932709,77.027458 370.926147,77.339775 
	C371.993591,70.264610 373.182892,62.911304 374.109955,55.525089 
	C374.218323,54.661785 372.879333,53.616817 371.471527,52.617054 
M216.845551,133.721222 
	C218.660751,133.660019 221.305847,134.333069 222.133240,133.397919 
	C224.475815,130.750214 226.074203,127.444115 228.185684,124.043053 
	C222.022552,119.316223 215.625366,114.409874 208.977936,109.311592 
	C207.887711,110.640778 207.024323,111.693398 205.971832,112.976562 
	C210.744034,116.613327 215.184250,120.060394 219.696548,123.410355 
	C222.127274,125.214920 222.980927,127.062378 219.908630,129.925690 
	C214.338669,125.799255 208.676102,121.604218 202.726913,117.196838 
	C201.805481,118.558022 201.045349,119.680923 200.115860,121.054008 
	C205.706345,125.311043 210.968399,129.317993 216.845551,133.721222 
M499.943146,225.512283 
	C500.551331,223.800919 501.624512,222.074661 501.570374,220.384521 
	C501.543579,219.547180 499.158447,217.897446 498.340027,218.161896 
	C496.736328,218.680115 494.489746,220.127182 494.281158,221.465912 
	C493.772797,224.728714 495.904633,226.247498 499.943146,225.512283 
M178.956360,225.809052 
	C180.590836,225.029251 182.877426,224.637146 183.646835,223.343033 
	C184.228516,222.364655 183.294510,219.307907 182.274948,218.842941 
	C180.898773,218.215378 178.793396,219.186813 177.000931,219.472092 
	C177.419434,221.468674 177.837936,223.465240 178.956360,225.809052 
z"/>
<path fill="#FFFFFE" opacity="1.000000" stroke="none" 
	d="
M249.100006,268.869812 
	C213.562958,204.338837 250.099976,127.608101 322.335327,114.388695 
	C378.530365,104.104744 435.369476,146.009705 442.079315,202.670593 
	C448.865479,259.976379 413.044952,308.815216 356.408386,319.476929 
	C315.075256,327.257812 272.617523,307.331299 249.100006,268.869812 
z"/>
<path fill="#FDF0ED" opacity="1.000000" stroke="none" 
	d="
M321.685425,68.093460 
	C322.104584,70.616478 322.444122,72.729164 323.072296,76.637947 
	C320.750092,75.163918 319.196777,74.665886 318.423187,73.601280 
	C315.301514,69.305168 312.436066,64.823578 309.438721,60.435947 
	C308.739838,59.412899 307.894592,58.489811 306.256622,57.902760 
	C307.446167,64.356003 308.635742,70.809242 309.857269,77.436005 
	C307.319702,78.693085 305.670807,78.791458 305.061066,75.329041 
	C303.248566,65.035744 301.238068,54.777306 298.983948,42.799515 
	C301.336731,43.957401 303.023956,44.255226 303.783234,45.256645 
	C306.579285,48.944397 309.049652,52.877865 311.682465,56.691299 
	C312.544403,57.939690 313.528046,59.104038 314.456055,60.306820 
	C314.832367,60.121319 315.208710,59.935814 315.585022,59.750313 
	C314.580383,53.796680 313.575745,47.843044 312.538177,41.694328 
	C315.064636,40.547329 316.548462,40.450691 317.099457,43.688015 
	C318.464661,51.709682 320.086853,59.687618 321.685425,68.093460 
M314.884460,61.442429 
	C314.955353,61.584820 315.008881,61.740402 315.103424,61.864819 
	C315.163116,61.943371 315.284119,61.975334 315.377594,62.028194 
	C315.351349,61.232883 315.325104,60.437572 315.298859,59.642269 
	C315.008240,60.015083 314.717621,60.387894 314.884460,61.442429 
z"/>
<path fill="#FDEFEC" opacity="1.000000" stroke="none" 
	d="
M305.577209,366.439331 
	C306.115662,363.570099 306.394562,361.072357 307.024963,358.666748 
	C307.309265,357.581879 308.294006,356.680542 308.960968,355.695953 
	C309.882385,356.661865 311.352905,357.491486 311.632111,358.616760 
	C312.992554,364.099396 314.011749,369.665985 315.208435,375.190613 
	C315.446808,376.291077 315.932922,377.337860 316.607208,379.280731 
	C318.133270,371.735840 319.478546,365.084717 320.823853,358.433563 
	C321.313324,358.181763 321.802826,357.929932 322.292297,357.678101 
	C323.010254,359.029419 324.520996,360.513245 324.320831,361.711151 
	C322.704742,371.381622 320.805389,381.006042 318.863892,390.618591 
	C318.683380,391.512146 317.612885,392.225952 316.955597,393.023193 
	C316.178986,392.173340 314.940216,391.435730 314.701965,390.455078 
	C313.329773,384.807220 312.212982,379.097748 310.962189,373.419617 
	C310.725861,372.346893 310.275635,371.321259 309.482147,368.956970 
	C308.123505,376.097260 307.062836,381.898132 305.902069,387.678894 
	C305.295898,390.697968 305.216400,390.682007 301.159363,389.742218 
	C302.590668,382.124542 304.025848,374.486481 305.577209,366.439331 
z"/>
<path fill="#FDF0ED" opacity="1.000000" stroke="none" 
	d="
M202.627655,274.776459 
	C205.051865,273.985229 207.048782,273.012146 209.138931,272.730133 
	C210.447098,272.553619 211.895630,273.417542 213.281189,273.814606 
	C213.215012,274.432404 213.148834,275.050232 213.082657,275.668030 
	C202.002136,279.222412 190.921616,282.776764 179.841110,286.331146 
	C179.457733,285.880859 179.074371,285.430603 178.690994,284.980347 
	C182.091522,278.118164 190.151001,275.227142 193.909927,267.997955 
	C187.919250,269.854065 181.928589,271.710175 175.905869,273.576202 
	C174.139694,270.979462 174.314148,269.741882 177.370575,268.792633 
	C187.338104,265.697083 197.211945,262.299927 208.809113,258.460114 
	C207.871109,261.073578 207.763031,262.924164 206.782166,263.843170 
	C202.188156,268.147430 197.353851,272.195160 192.795792,277.225433 
	C195.943802,276.445892 199.091797,275.666351 202.627655,274.776459 
M195.065353,267.837341 
	C194.610397,268.237915 194.155441,268.638489 193.700470,269.039093 
	C194.324020,268.894318 194.947571,268.749542 195.065353,267.837341 
z"/>
<path fill="#FEF2EF" opacity="1.000000" stroke="none" 
	d="
M176.124420,174.752411 
	C172.144882,173.495407 168.547073,172.356750 164.946014,171.217056 
	C166.336472,167.110001 166.336472,167.110001 187.916962,165.125107 
	C185.969574,164.305847 184.053848,163.398117 182.067642,162.687302 
	C178.790405,161.514435 175.402542,160.624863 172.197998,159.288177 
	C171.013443,158.794067 170.215073,157.374115 169.240555,156.376404 
	C170.616867,156.037979 172.164551,155.114212 173.340958,155.458649 
	C179.704147,157.321609 185.969910,159.515594 192.280930,161.559402 
	C195.115067,162.477203 198.015594,163.205780 200.802826,164.243546 
	C201.705490,164.579620 202.343491,165.626495 203.102570,166.348221 
	C202.179947,167.026947 201.314026,168.190811 200.325607,168.306305 
	C193.510254,169.102554 186.669327,169.679962 179.614609,171.321823 
	C185.153763,173.166580 190.631195,175.237625 196.255051,176.771942 
	C199.675812,177.705185 199.806442,179.029251 197.723312,181.753098 
	C190.645630,179.457275 183.575912,177.164017 176.124420,174.752411 
z"/>
<path fill="#FEF2EF" opacity="1.000000" stroke="none" 
	d="
M415.541809,94.520966 
	C414.018463,94.814072 412.702515,94.814072 410.460175,94.814072 
	C413.904816,88.665787 416.949341,83.587410 419.574463,78.300758 
	C420.246979,76.946449 419.594513,74.934212 419.550812,73.224243 
	C417.795013,73.994469 415.296417,74.278481 414.416809,75.622246 
	C411.247589,80.463684 408.624176,85.662369 405.657349,90.971672 
	C404.325256,90.147476 403.259979,89.488365 401.934326,88.668159 
	C406.023254,81.399818 409.985565,74.356552 414.118103,67.010696 
	C418.432983,69.624397 422.462830,72.065453 426.492676,74.506500 
	C426.283112,74.954422 426.073547,75.402336 425.863983,75.850258 
	C426.982727,75.850258 428.113007,75.746155 429.218292,75.868324 
	C433.936859,76.389847 435.769653,79.314720 433.599854,83.523407 
	C430.565796,89.408493 427.139648,95.091423 423.736115,101.117828 
	C422.449493,100.420937 421.358795,99.830162 419.952148,99.068253 
	C422.737457,94.117355 425.522461,89.443352 428.006561,84.614563 
	C428.990601,82.701767 431.982697,80.231606 428.417999,78.360847 
	C425.102936,76.621078 423.875031,79.729088 422.579285,82.060684 
	C420.319977,86.126068 418.027679,90.173119 415.541809,94.520966 
z"/>
<path fill="#FDF1EE" opacity="1.000000" stroke="none" 
	d="
M263.517609,347.786652 
	C263.921814,350.263916 264.872711,350.882965 267.206238,351.023926 
	C272.860077,351.365387 274.438171,354.624542 271.561798,359.437714 
	C268.329803,364.845978 264.935333,370.157135 261.358612,375.917938 
	C260.100739,375.088104 258.970184,374.342285 257.719757,373.517365 
	C261.018555,368.240143 264.252380,363.404663 267.063416,358.334778 
	C267.776062,357.049469 267.142029,355.017426 267.126770,353.328522 
	C265.369904,354.049133 262.925446,354.272400 261.979828,355.579773 
	C258.593384,360.261810 255.714661,365.311066 252.484238,370.476776 
	C251.214157,369.577454 250.191116,368.853027 248.960556,367.981659 
	C252.242905,362.700012 255.515686,357.725952 258.416077,352.543457 
	C259.069672,351.375580 258.424927,349.481079 258.377869,347.921051 
	C256.673279,348.458557 254.218460,348.464264 253.394852,349.626221 
	C249.950684,354.485382 246.996063,359.691528 243.723709,364.994629 
	C242.479416,364.165039 241.433807,363.467896 240.058853,362.551178 
	C244.070419,356.110809 247.929672,349.777649 251.987305,343.574280 
	C252.495148,342.797882 254.379333,342.062256 255.063995,342.410919 
	C257.919434,343.865021 260.560150,345.740723 263.517609,347.786652 
z"/>
<path fill="#FDEDE9" opacity="1.000000" stroke="none" 
	d="
M408.792938,367.314240 
	C406.444550,363.262543 404.276764,359.532043 401.771912,355.221558 
	C406.182129,352.923035 410.424652,350.711945 414.667145,348.500824 
	C414.938477,348.945892 415.209839,349.390961 415.481171,349.836029 
	C416.033844,348.839264 416.487518,347.769897 417.156403,346.858337 
	C419.953644,343.046326 423.345428,342.950378 425.946625,347.042419 
	C429.502380,352.636017 432.607513,358.516022 436.029663,364.489410 
	C434.790375,365.289062 433.726074,365.975830 432.365753,366.853577 
	C429.230499,361.355621 426.320831,355.963135 423.069336,350.785309 
	C422.381866,349.690552 420.443726,349.381104 419.081848,348.709839 
	C418.779175,350.400085 417.707062,352.457001 418.307465,353.716919 
	C420.866272,359.086548 423.919739,364.220459 426.938507,369.705353 
	C425.755432,370.393402 424.668762,371.025360 423.266602,371.840790 
	C420.184540,366.462616 417.337860,361.216522 414.169312,356.172668 
	C413.427704,354.992126 411.201324,353.525360 410.342102,353.874359 
	C408.084595,354.791260 407.645447,356.703583 409.127228,359.144623 
	C412.136047,364.101318 414.819214,369.255676 417.702209,374.446655 
	C415.779968,376.847748 414.102295,377.315674 412.498688,374.228760 
	C411.349884,372.017365 410.150391,369.832275 408.792938,367.314240 
z"/>
<path fill="#FDEDE8" opacity="1.000000" stroke="none" 
	d="
M244.930969,79.625122 
	C246.665039,76.601051 248.322739,74.332573 252.085236,74.827026 
	C252.848312,74.927315 254.041367,73.866318 254.602768,73.044571 
	C257.980072,68.100990 261.266968,68.023026 264.500366,73.053726 
	C267.817596,78.214890 270.999420,83.463074 274.277222,88.732178 
	C272.247681,91.767319 270.731628,91.698753 268.960693,88.562607 
	C266.677216,84.518776 264.261414,80.515106 261.496002,76.796501 
	C260.513062,75.474701 257.679626,73.912163 256.834045,74.408188 
	C254.295898,75.897079 255.290634,78.108582 256.784973,80.315781 
	C259.852692,84.846977 262.604919,89.591805 265.507538,94.281845 
	C263.699463,96.774040 262.232391,97.722153 260.361725,94.441414 
	C257.814972,89.975067 255.126694,85.574776 252.215622,81.341080 
	C251.481689,80.273689 249.669769,79.947525 248.353210,79.280731 
	C247.951019,81.003090 246.669006,83.198532 247.297226,84.366844 
	C250.189392,89.745491 253.614334,94.837654 256.992828,100.264946 
	C255.623810,101.057449 254.546600,101.681015 253.205414,102.457405 
	C248.776932,95.381996 244.474182,88.507446 239.645248,80.792206 
	C241.571899,80.416885 243.080505,80.123001 244.930969,79.625122 
z"/>
<path fill="#FDF1EE" opacity="1.000000" stroke="none" 
	d="
M470.191101,277.720062 
	C468.275970,277.012543 466.723602,276.456696 464.996674,275.838318 
	C465.116547,272.370972 466.145721,270.928650 469.833649,272.382965 
	C475.850403,274.755676 481.995087,276.804626 488.092651,278.970886 
	C489.186707,279.359589 490.298218,279.724091 491.428741,279.980103 
	C494.034180,280.570038 496.412964,280.589233 497.602356,277.495361 
	C498.837341,274.282959 496.848145,272.698700 494.450226,271.740143 
	C487.672852,269.030823 480.801117,266.557770 473.967926,263.987915 
	C472.597168,263.472382 471.232574,262.940582 469.618103,262.321564 
	C470.039825,260.917450 470.404083,259.704559 470.717621,258.660645 
	C471.314362,258.452148 471.672638,258.183746 471.901215,258.267883 
	C479.840057,261.190125 487.866638,263.906799 495.663452,267.171600 
	C501.932770,269.796814 503.411224,273.413818 501.414246,278.943176 
	C499.464355,284.342194 495.670776,286.201385 489.404846,284.295441 
	C483.057220,282.364655 476.832458,280.029663 470.191101,277.720062 
z"/>
<path fill="#FDF0EC" opacity="1.000000" stroke="none" 
	d="
M501.706024,154.798737 
	C503.768555,154.099991 505.467072,153.531799 507.386047,152.889862 
	C507.893097,154.356934 508.305481,155.550125 508.738068,156.801758 
	C508.315826,157.191086 508.021973,157.657043 507.610748,157.812332 
	C499.859985,160.739380 492.091675,163.620041 484.335449,166.532715 
	C481.528870,167.586655 479.767761,169.252045 480.943909,172.582153 
	C482.113190,175.892776 484.848450,175.533157 487.171326,174.803360 
	C494.120605,172.620102 500.964813,170.103287 507.856964,167.736755 
	C509.224884,167.267059 510.623444,166.886581 511.926697,166.489700 
	C514.027832,169.302917 513.458374,170.853851 510.500275,171.851685 
	C503.443939,174.231934 496.472778,176.871841 489.382294,179.141586 
	C483.091553,181.155319 479.073517,179.410538 477.117950,174.272339 
	C474.911377,168.474625 476.791443,164.260544 483.171570,161.666046 
	C489.152527,159.233887 495.279358,157.160553 501.706024,154.798737 
z"/>
<path fill="#FEF4F1" opacity="1.000000" stroke="none" 
	d="
M458.109161,127.125107 
	C459.221100,126.115257 460.082947,125.350319 461.044800,124.496620 
	C459.010681,121.946777 457.054565,119.494736 454.082184,115.768761 
	C459.125885,113.977951 463.555084,112.323723 468.041595,110.843040 
	C470.716064,109.960388 473.592133,109.620712 476.177704,108.552895 
	C479.869354,107.028259 482.218140,108.084244 483.841095,111.811775 
	C479.347870,115.504250 474.644287,119.187096 470.204468,123.164352 
	C469.259705,124.010658 469.337006,125.951279 468.829865,127.346443 
	C468.369751,128.612167 467.754883,129.821609 467.124817,131.244217 
	C465.640900,130.008362 464.777863,129.289566 463.793121,128.469452 
	C461.463104,130.240631 459.236298,131.933350 456.966553,133.658691 
	C452.187103,130.681213 455.658966,129.123566 458.109161,127.125107 
M472.372894,113.329056 
	C468.704529,114.684227 465.036133,116.039391 460.971558,117.540924 
	C462.292786,119.237007 463.276978,120.500427 464.415222,121.961632 
	C467.699036,119.265022 470.747009,116.769165 473.751343,114.221771 
	C473.792908,114.186562 473.284393,113.502533 472.372894,113.329056 
z"/>
<path fill="#FEF2EF" opacity="1.000000" stroke="none" 
	d="
M447.449280,311.845947 
	C445.027283,308.509491 445.908051,306.088165 449.054779,303.727844 
	C454.402222,308.023804 459.796600,312.357452 464.655334,316.260773 
	C466.800873,315.940155 468.350800,315.708496 469.900726,315.476868 
	C469.900726,317.008453 469.900726,318.540039 469.900726,320.572998 
	C471.597961,322.003174 473.733978,323.803070 476.090088,325.788422 
	C475.261353,326.879822 474.492432,327.892456 473.519348,329.173950 
	C471.033173,327.299927 468.709015,325.548065 466.150055,323.619171 
	C463.960632,326.121368 461.908569,328.466583 459.488831,331.231964 
	C453.080200,326.246185 451.575470,318.399506 447.449280,311.845947 
M453.283051,312.859161 
	C452.891968,312.770844 452.500854,312.682526 452.109772,312.594208 
	C452.370483,313.095093 452.631226,313.596008 453.091614,314.774261 
	C455.042908,318.090790 456.994171,321.407288 459.259583,325.257721 
	C460.697968,323.298096 461.618317,322.044220 462.754242,320.496674 
	C459.529053,317.932953 456.599640,315.604401 453.283051,312.859161 
z"/>
<path fill="#FDF0ED" opacity="1.000000" stroke="none" 
	d="
M373.278564,382.356659 
	C373.743988,385.227173 374.152924,387.674805 374.550995,390.057495 
	C370.815582,391.032684 367.271545,392.488434 363.676544,392.627625 
	C362.295441,392.681061 359.900757,389.925629 359.515350,388.119781 
	C358.136566,381.659698 357.420990,375.058044 356.424011,368.302917 
	C358.060944,368.043610 359.313293,367.845215 360.947235,367.586365 
	C361.952576,373.721130 362.815857,379.612549 363.960083,385.448883 
	C364.191132,386.627380 365.485931,387.597351 366.290344,388.663452 
	C367.161194,387.302765 368.876862,385.862762 368.757874,384.595001 
	C368.216949,378.832001 367.159363,373.117554 366.228088,366.994171 
	C367.696442,366.639954 369.042084,366.315308 370.822205,365.885864 
	C371.661194,371.496216 372.441650,376.715027 373.278564,382.356659 
z"/>
<path fill="#FDF1EE" opacity="1.000000" stroke="none" 
	d="
M211.284271,314.316650 
	C214.215073,312.100739 216.862854,310.101746 219.761063,307.913696 
	C220.772797,309.094360 221.706284,310.183685 222.743423,311.394012 
	C217.035141,315.902771 211.508179,320.268311 205.912582,324.688080 
	C207.844116,327.654602 209.421295,328.403625 211.919174,326.395294 
	C216.415314,322.780273 221.072876,319.366028 225.874695,315.706573 
	C226.849747,316.909729 227.650009,317.897217 228.836075,319.360779 
	C222.125992,324.503387 215.622025,329.488068 209.299179,334.333923 
	C206.661133,331.344208 203.883850,328.856842 202.069016,325.798340 
	C201.391800,324.657043 202.443665,321.710388 203.620422,320.419495 
	C205.713776,318.123047 208.503067,316.460999 211.284271,314.316650 
z"/>
<path fill="#FDF1EE" opacity="1.000000" stroke="none" 
	d="
M371.841431,52.636559 
	C372.879333,53.616817 374.218323,54.661785 374.109955,55.525089 
	C373.182892,62.911304 371.993591,70.264610 370.926147,77.339775 
	C366.932709,77.027458 363.153381,77.399879 359.973846,76.192619 
	C358.455109,75.615952 357.178619,71.969170 357.348969,69.837349 
	C357.837250,63.726334 359.120880,57.678856 360.163574,51.157814 
	C361.557098,51.227741 362.925995,51.296432 364.722687,51.386593 
	C363.704254,58.753849 362.743317,65.704971 361.796814,72.551811 
	C365.531616,73.781822 366.891907,72.647835 367.258759,69.658836 
	C367.744019,65.705147 368.278259,61.742470 369.116241,57.853649 
	C369.510498,56.023899 370.662750,54.357483 371.841431,52.636559 
z"/>
<path fill="#FDF0ED" opacity="1.000000" stroke="none" 
	d="
M216.537994,133.523071 
	C210.968399,129.317993 205.706345,125.311043 200.115860,121.054008 
	C201.045349,119.680923 201.805481,118.558022 202.726913,117.196838 
	C208.676102,121.604218 214.338669,125.799255 219.908630,129.925690 
	C222.980927,127.062378 222.127274,125.214920 219.696548,123.410355 
	C215.184250,120.060394 210.744034,116.613327 205.971832,112.976562 
	C207.024323,111.693398 207.887711,110.640778 208.977936,109.311592 
	C215.625366,114.409874 222.022552,119.316223 228.185684,124.043053 
	C226.074203,127.444115 224.475815,130.750214 222.133240,133.397919 
	C221.305847,134.333069 218.660751,133.660019 216.537994,133.523071 
z"/>
<path fill="#FEF5F2" opacity="1.000000" stroke="none" 
	d="
M499.584503,225.675110 
	C495.904633,226.247498 493.772797,224.728714 494.281158,221.465912 
	C494.489746,220.127182 496.736328,218.680115 498.340027,218.161896 
	C499.158447,217.897446 501.543579,219.547180 501.570374,220.384521 
	C501.624512,222.074661 500.551331,223.800919 499.584503,225.675110 
z"/>
<path fill="#FEF4F1" opacity="1.000000" stroke="none" 
	d="
M178.606400,225.635437 
	C177.837936,223.465240 177.419434,221.468674 177.000931,219.472092 
	C178.793396,219.186813 180.898773,218.215378 182.274948,218.842941 
	C183.294510,219.307907 184.228516,222.364655 183.646835,223.343033 
	C182.877426,224.637146 180.590836,225.029251 178.606400,225.635437 
z"/>
<path fill="#EA3C12" opacity="1.000000" stroke="none" 
	d="
M314.655731,61.101570 
	C314.717621,60.387894 315.008240,60.015083 315.298859,59.642265 
	C315.325104,60.437572 315.351349,61.232883 315.377594,62.028198 
	C315.284119,61.975334 315.163116,61.943371 315.103424,61.864819 
	C315.008881,61.740402 314.955353,61.584820 314.655731,61.101570 
z"/>
<path fill="#EA3C12" opacity="1.000000" stroke="none" 
	d="
M195.318237,268.221069 
	C194.947571,268.749542 194.324020,268.894318 193.700470,269.039062 
	C194.155441,268.638489 194.610397,268.237915 195.318237,268.221069 
z"/>
<path fill="#EC4F29" opacity="1.000000" stroke="none" 
	d="
M472.702759,113.225189 
	C473.284393,113.502533 473.792908,114.186562 473.751343,114.221771 
	C470.747009,116.769165 467.699036,119.265022 464.415222,121.961632 
	C463.276978,120.500427 462.292786,119.237007 460.971558,117.540924 
	C465.036133,116.039391 468.704529,114.684227 472.702759,113.225189 
z"/>
<path fill="#ED5531" opacity="1.000000" stroke="none" 
	d="
M453.670258,313.275818 
	C456.599640,315.604401 459.529053,317.932953 462.754242,320.496674 
	C461.618317,322.044220 460.697968,323.298096 459.259583,325.257721 
	C456.994171,321.407288 455.042908,318.090790 453.189148,314.232971 
	C453.414551,313.553070 453.542419,313.414459 453.670258,313.275818 
z"/>
<path fill="#ED5531" opacity="1.000000" stroke="none" 
	d="
M453.089325,313.894287 
	C452.631226,313.596008 452.370483,313.095093 452.109772,312.594208 
	C452.500854,312.682526 452.891968,312.770844 453.476654,313.067505 
	C453.542419,313.414459 453.414551,313.553070 453.089325,313.894287 
z"/>
</svg>